<svg width="16" height="16" viewBox="0 0 16 16" fill="none" xmlns="http://www.w3.org/2000/svg">
<path d="M9 2.6665C9 3.21879 8.55228 3.6665 8 3.6665C7.44772 3.6665 7 3.21879 7 2.6665C7 2.11422 7.44772 1.6665 8 1.6665C8.55228 1.6665 9 2.11422 9 2.6665Z" fill="black"/>
<path d="M9 7.99984C9 8.55212 8.55228 8.99984 8 8.99984C7.44772 8.99984 7 8.55212 7 7.99984C7 7.44755 7.44772 6.99984 8 6.99984C8.55228 6.99984 9 7.44755 9 7.99984Z" fill="black"/>
<path d="M8 14.3332C8.55228 14.3332 9 13.8855 9 13.3332C9 12.7809 8.55228 12.3332 8 12.3332C7.44772 12.3332 7 12.7809 7 13.3332C7 13.8855 7.44772 14.3332 8 14.3332Z" fill="black"/>
</svg>
